<mxfile host="65bd71144e">
    <diagram id="ZfAqjgIprXz8obR3iNaF" name="*ボトルネックマスタ_登録">
        <mxGraphModel dx="1428" dy="459" grid="1" gridSize="10" guides="1" tooltips="1" connect="1" arrows="1" fold="1" page="0" pageScale="1" pageWidth="827" pageHeight="1169" math="0" shadow="0">
            <root>
                <mxCell id="0"/>
                <mxCell id="1" parent="0"/>
                <mxCell id="OsoxZK7iBsJ-Jq_3ZF_z-1" value="管理者&lt;br&gt;正規社員" style="shape=umlActor;verticalLabelPosition=bottom;verticalAlign=top;html=1;" vertex="1" parent="1">
                    <mxGeometry x="-70" y="280" width="30" height="60" as="geometry"/>
                </mxCell>
                <mxCell id="OsoxZK7iBsJ-Jq_3ZF_z-2" value="ログイン済&lt;br&gt;ホーム画面" style="shape=umlBoundary;whiteSpace=wrap;html=1;fillColor=#dae8fc;strokeColor=#6c8ebf;" vertex="1" parent="1">
                    <mxGeometry x="120" y="120" width="100" height="80" as="geometry"/>
                </mxCell>
                <mxCell id="OsoxZK7iBsJ-Jq_3ZF_z-3" value="ボトルネック&lt;br&gt;一覧画面" style="shape=umlBoundary;whiteSpace=wrap;html=1;fillColor=#dae8fc;strokeColor=#6c8ebf;" vertex="1" parent="1">
                    <mxGeometry x="120" y="280" width="100" height="80" as="geometry"/>
                </mxCell>
                <mxCell id="OsoxZK7iBsJ-Jq_3ZF_z-4" value="新規登録&lt;br&gt;画面" style="shape=umlBoundary;whiteSpace=wrap;html=1;fillColor=#dae8fc;strokeColor=#6c8ebf;" vertex="1" parent="1">
                    <mxGeometry x="120" y="440" width="100" height="80" as="geometry"/>
                </mxCell>
                <mxCell id="OsoxZK7iBsJ-Jq_3ZF_z-5" value="ボトルネック&lt;br&gt;情報を&lt;br&gt;取得する" style="ellipse;shape=umlControl;whiteSpace=wrap;html=1;fillColor=#f8cecc;strokeColor=#b85450;" vertex="1" parent="1">
                    <mxGeometry x="440" y="110" width="80" height="90" as="geometry"/>
                </mxCell>
                <mxCell id="OsoxZK7iBsJ-Jq_3ZF_z-6" value="ボトルネック&lt;br&gt;モデル" style="ellipse;shape=umlEntity;whiteSpace=wrap;html=1;fillColor=#d5e8d4;strokeColor=#82b366;" vertex="1" parent="1">
                    <mxGeometry x="720" y="120" width="80" height="80" as="geometry"/>
                </mxCell>
                <mxCell id="OsoxZK7iBsJ-Jq_3ZF_z-7" value="表示する" style="ellipse;shape=umlControl;whiteSpace=wrap;html=1;fillColor=#f8cecc;strokeColor=#b85450;" vertex="1" parent="1">
                    <mxGeometry x="440" y="280" width="70" height="80" as="geometry"/>
                </mxCell>
                <mxCell id="OsoxZK7iBsJ-Jq_3ZF_z-8" value="" style="endArrow=classic;html=1;rounded=0;" edge="1" parent="1">
                    <mxGeometry width="50" height="50" relative="1" as="geometry">
                        <mxPoint x="235" y="319.28999999999996" as="sourcePoint"/>
                        <mxPoint x="430" y="319" as="targetPoint"/>
                    </mxGeometry>
                </mxCell>
                <mxCell id="OsoxZK7iBsJ-Jq_3ZF_z-9" value="" style="endArrow=classic;html=1;rounded=0;" edge="1" parent="1">
                    <mxGeometry width="50" height="50" relative="1" as="geometry">
                        <mxPoint x="-30" y="320" as="sourcePoint"/>
                        <mxPoint x="110" y="160" as="targetPoint"/>
                    </mxGeometry>
                </mxCell>
                <mxCell id="OsoxZK7iBsJ-Jq_3ZF_z-10" value="「ボトルネックマスタ」&lt;br&gt;を押下" style="edgeLabel;html=1;align=center;verticalAlign=middle;resizable=0;points=[];" vertex="1" connectable="0" parent="OsoxZK7iBsJ-Jq_3ZF_z-9">
                    <mxGeometry x="0.2118" y="-2" relative="1" as="geometry">
                        <mxPoint x="-9" y="10" as="offset"/>
                    </mxGeometry>
                </mxCell>
                <mxCell id="OsoxZK7iBsJ-Jq_3ZF_z-11" value="" style="endArrow=classic;html=1;rounded=0;" edge="1" parent="1">
                    <mxGeometry width="50" height="50" relative="1" as="geometry">
                        <mxPoint x="-30" y="320" as="sourcePoint"/>
                        <mxPoint x="110" y="480" as="targetPoint"/>
                    </mxGeometry>
                </mxCell>
                <mxCell id="OsoxZK7iBsJ-Jq_3ZF_z-12" value="ボトルネック情報&lt;br&gt;を入力" style="edgeLabel;html=1;align=center;verticalAlign=middle;resizable=0;points=[];" vertex="1" connectable="0" parent="OsoxZK7iBsJ-Jq_3ZF_z-11">
                    <mxGeometry x="-0.227" y="-2" relative="1" as="geometry">
                        <mxPoint x="17" y="7" as="offset"/>
                    </mxGeometry>
                </mxCell>
                <mxCell id="OsoxZK7iBsJ-Jq_3ZF_z-13" value="" style="endArrow=classic;html=1;rounded=0;" edge="1" parent="1">
                    <mxGeometry width="50" height="50" relative="1" as="geometry">
                        <mxPoint x="-30" y="320" as="sourcePoint"/>
                        <mxPoint x="110" y="320" as="targetPoint"/>
                    </mxGeometry>
                </mxCell>
                <mxCell id="OsoxZK7iBsJ-Jq_3ZF_z-14" value="「新規登録」を押下" style="edgeLabel;html=1;align=center;verticalAlign=middle;resizable=0;points=[];" vertex="1" connectable="0" parent="OsoxZK7iBsJ-Jq_3ZF_z-13">
                    <mxGeometry x="-0.3413" y="-4" relative="1" as="geometry">
                        <mxPoint x="24" y="-4" as="offset"/>
                    </mxGeometry>
                </mxCell>
                <mxCell id="OsoxZK7iBsJ-Jq_3ZF_z-15" value="" style="endArrow=classic;html=1;rounded=0;startArrow=classic;startFill=1;" edge="1" parent="1">
                    <mxGeometry width="50" height="50" relative="1" as="geometry">
                        <mxPoint x="520" y="160" as="sourcePoint"/>
                        <mxPoint x="700" y="160" as="targetPoint"/>
                    </mxGeometry>
                </mxCell>
                <mxCell id="OsoxZK7iBsJ-Jq_3ZF_z-16" value="" style="endArrow=classic;html=1;rounded=0;" edge="1" parent="1">
                    <mxGeometry width="50" height="50" relative="1" as="geometry">
                        <mxPoint x="230" y="159.58000000000004" as="sourcePoint"/>
                        <mxPoint x="425" y="159.29000000000008" as="targetPoint"/>
                    </mxGeometry>
                </mxCell>
                <mxCell id="OsoxZK7iBsJ-Jq_3ZF_z-17" value="" style="endArrow=classic;html=1;rounded=0;" edge="1" parent="1">
                    <mxGeometry width="50" height="50" relative="1" as="geometry">
                        <mxPoint x="430" y="170" as="sourcePoint"/>
                        <mxPoint x="240" y="310" as="targetPoint"/>
                    </mxGeometry>
                </mxCell>
                <mxCell id="OsoxZK7iBsJ-Jq_3ZF_z-18" value="" style="endArrow=classic;html=1;rounded=0;" edge="1" parent="1">
                    <mxGeometry width="50" height="50" relative="1" as="geometry">
                        <mxPoint x="430" y="330" as="sourcePoint"/>
                        <mxPoint x="240" y="470" as="targetPoint"/>
                    </mxGeometry>
                </mxCell>
                <mxCell id="OsoxZK7iBsJ-Jq_3ZF_z-19" value="" style="endArrow=classic;html=1;rounded=0;startArrow=classic;startFill=1;" edge="1" parent="1">
                    <mxGeometry width="50" height="50" relative="1" as="geometry">
                        <mxPoint x="240" y="479.5799999999999" as="sourcePoint"/>
                        <mxPoint x="430" y="600" as="targetPoint"/>
                    </mxGeometry>
                </mxCell>
                <mxCell id="OsoxZK7iBsJ-Jq_3ZF_z-20" value="" style="endArrow=classic;html=1;rounded=0;startArrow=classic;startFill=1;" edge="1" parent="1">
                    <mxGeometry width="50" height="50" relative="1" as="geometry">
                        <mxPoint x="520" y="480" as="sourcePoint"/>
                        <mxPoint x="710" y="190" as="targetPoint"/>
                    </mxGeometry>
                </mxCell>
                <mxCell id="OsoxZK7iBsJ-Jq_3ZF_z-21" value="ボトルネック情報&lt;br&gt;を登録" style="edgeLabel;html=1;align=center;verticalAlign=middle;resizable=0;points=[];" vertex="1" connectable="0" parent="OsoxZK7iBsJ-Jq_3ZF_z-20">
                    <mxGeometry x="0.3181" y="-1" relative="1" as="geometry">
                        <mxPoint x="-1" as="offset"/>
                    </mxGeometry>
                </mxCell>
                <mxCell id="OsoxZK7iBsJ-Jq_3ZF_z-22" value="ボトルネックマスタ_登録" style="rounded=0;whiteSpace=wrap;html=1;fillColor=#ffe6cc;strokeColor=#d79b00;fontStyle=1;fontSize=18;" vertex="1" parent="1">
                    <mxGeometry x="-150" y="70" width="250" height="60" as="geometry"/>
                </mxCell>
                <mxCell id="OsoxZK7iBsJ-Jq_3ZF_z-23" value="入力データ検証" style="ellipse;shape=umlControl;whiteSpace=wrap;html=1;fillColor=#f8cecc;strokeColor=#b85450;" vertex="1" parent="1">
                    <mxGeometry x="440" y="560" width="70" height="80" as="geometry"/>
                </mxCell>
                <mxCell id="OsoxZK7iBsJ-Jq_3ZF_z-24" value="登録する" style="ellipse;shape=umlControl;whiteSpace=wrap;html=1;fillColor=#f8cecc;strokeColor=#b85450;" vertex="1" parent="1">
                    <mxGeometry x="440" y="440" width="70" height="80" as="geometry"/>
                </mxCell>
                <mxCell id="OsoxZK7iBsJ-Jq_3ZF_z-25" value="" style="endArrow=classic;html=1;rounded=0;" edge="1" parent="1" source="OsoxZK7iBsJ-Jq_3ZF_z-23">
                    <mxGeometry width="50" height="50" relative="1" as="geometry">
                        <mxPoint x="475" y="550" as="sourcePoint"/>
                        <mxPoint x="475" y="530" as="targetPoint"/>
                    </mxGeometry>
                </mxCell>
                <mxCell id="OsoxZK7iBsJ-Jq_3ZF_z-26" value="" style="curved=1;endArrow=classic;html=1;rounded=0;" edge="1" parent="1">
                    <mxGeometry width="50" height="50" relative="1" as="geometry">
                        <mxPoint x="520" y="460" as="sourcePoint"/>
                        <mxPoint x="520" y="170" as="targetPoint"/>
                        <Array as="points">
                            <mxPoint x="600" y="250"/>
                        </Array>
                    </mxGeometry>
                </mxCell>
            </root>
        </mxGraphModel>
    </diagram>
    <diagram name="*ボトルネックマスタ_参照" id="51jvoeVAOOU93NOwMk4s">
        <mxGraphModel dx="1428" dy="459" grid="1" gridSize="10" guides="1" tooltips="1" connect="1" arrows="1" fold="1" page="0" pageScale="1" pageWidth="827" pageHeight="1169" math="0" shadow="0">
            <root>
                <mxCell id="xLGzg63mB8Dj9gTOUTyu-0"/>
                <mxCell id="xLGzg63mB8Dj9gTOUTyu-1" parent="xLGzg63mB8Dj9gTOUTyu-0"/>
                <mxCell id="W3s7HI0xKzoNgR-u1J_f-0" value="ログイン済&lt;br&gt;ホーム画面" style="shape=umlBoundary;whiteSpace=wrap;html=1;fillColor=#dae8fc;strokeColor=#6c8ebf;" parent="xLGzg63mB8Dj9gTOUTyu-1" vertex="1">
                    <mxGeometry x="120" y="120" width="100" height="80" as="geometry"/>
                </mxCell>
                <mxCell id="W3s7HI0xKzoNgR-u1J_f-1" value="詳細画面" style="shape=umlBoundary;whiteSpace=wrap;html=1;fillColor=#dae8fc;strokeColor=#6c8ebf;" parent="xLGzg63mB8Dj9gTOUTyu-1" vertex="1">
                    <mxGeometry x="120" y="440" width="100" height="80" as="geometry"/>
                </mxCell>
                <mxCell id="W3s7HI0xKzoNgR-u1J_f-2" value="ボトルネック&lt;br&gt;モデル" style="ellipse;shape=umlEntity;whiteSpace=wrap;html=1;fillColor=#d5e8d4;strokeColor=#82b366;" parent="xLGzg63mB8Dj9gTOUTyu-1" vertex="1">
                    <mxGeometry x="720" y="200" width="80" height="80" as="geometry"/>
                </mxCell>
                <mxCell id="W3s7HI0xKzoNgR-u1J_f-3" value="表示する" style="ellipse;shape=umlControl;whiteSpace=wrap;html=1;fillColor=#f8cecc;strokeColor=#b85450;" parent="xLGzg63mB8Dj9gTOUTyu-1" vertex="1">
                    <mxGeometry x="440" y="280" width="70" height="80" as="geometry"/>
                </mxCell>
                <mxCell id="W3s7HI0xKzoNgR-u1J_f-4" value="" style="endArrow=classic;html=1;rounded=0;" parent="xLGzg63mB8Dj9gTOUTyu-1" edge="1">
                    <mxGeometry width="50" height="50" relative="1" as="geometry">
                        <mxPoint x="240" y="159.17000000000007" as="sourcePoint"/>
                        <mxPoint x="430" y="159.0000000000001" as="targetPoint"/>
                    </mxGeometry>
                </mxCell>
                <mxCell id="W3s7HI0xKzoNgR-u1J_f-5" value="" style="endArrow=classic;html=1;rounded=0;startArrow=classic;startFill=1;" parent="xLGzg63mB8Dj9gTOUTyu-1" edge="1">
                    <mxGeometry width="50" height="50" relative="1" as="geometry">
                        <mxPoint x="520" y="159.9999999999999" as="sourcePoint"/>
                        <mxPoint x="710.0000000000005" y="240" as="targetPoint"/>
                    </mxGeometry>
                </mxCell>
                <mxCell id="W3s7HI0xKzoNgR-u1J_f-6" value="" style="endArrow=none;html=1;rounded=0;jumpStyle=none;startArrow=classic;startFill=1;endFill=0;" parent="xLGzg63mB8Dj9gTOUTyu-1" edge="1">
                    <mxGeometry width="50" height="50" relative="1" as="geometry">
                        <mxPoint x="430" y="320" as="sourcePoint"/>
                        <mxPoint x="240" y="320" as="targetPoint"/>
                    </mxGeometry>
                </mxCell>
                <mxCell id="W3s7HI0xKzoNgR-u1J_f-7" value="" style="endArrow=classic;html=1;rounded=0;" parent="xLGzg63mB8Dj9gTOUTyu-1" edge="1">
                    <mxGeometry width="50" height="50" relative="1" as="geometry">
                        <mxPoint x="430" y="170" as="sourcePoint"/>
                        <mxPoint x="240" y="310" as="targetPoint"/>
                    </mxGeometry>
                </mxCell>
                <mxCell id="W3s7HI0xKzoNgR-u1J_f-8" value="" style="endArrow=none;html=1;rounded=0;jumpStyle=none;startArrow=classic;startFill=1;endFill=0;" parent="xLGzg63mB8Dj9gTOUTyu-1" edge="1">
                    <mxGeometry width="50" height="50" relative="1" as="geometry">
                        <mxPoint x="240" y="480" as="sourcePoint"/>
                        <mxPoint x="430" y="330" as="targetPoint"/>
                    </mxGeometry>
                </mxCell>
                <mxCell id="W3s7HI0xKzoNgR-u1J_f-9" value="ベンチマーク&lt;br&gt;情報一覧画面" style="shape=umlBoundary;whiteSpace=wrap;html=1;fillColor=#dae8fc;strokeColor=#6c8ebf;" parent="xLGzg63mB8Dj9gTOUTyu-1" vertex="1">
                    <mxGeometry x="120" y="280" width="100" height="80" as="geometry"/>
                </mxCell>
                <mxCell id="W3s7HI0xKzoNgR-u1J_f-10" value="ボトルネック&lt;br&gt;情報を&lt;br&gt;取得する" style="ellipse;shape=umlControl;whiteSpace=wrap;html=1;fillColor=#f8cecc;strokeColor=#b85450;" parent="xLGzg63mB8Dj9gTOUTyu-1" vertex="1">
                    <mxGeometry x="440" y="110" width="80" height="90" as="geometry"/>
                </mxCell>
                <mxCell id="W3s7HI0xKzoNgR-u1J_f-11" value="ボトルネックマスタ_参照" style="rounded=0;whiteSpace=wrap;html=1;fillColor=#ffe6cc;strokeColor=#d79b00;fontStyle=1;fontSize=18;" parent="xLGzg63mB8Dj9gTOUTyu-1" vertex="1">
                    <mxGeometry x="-159" y="77" width="250" height="60" as="geometry"/>
                </mxCell>
                <mxCell id="W3s7HI0xKzoNgR-u1J_f-12" value="管理者&lt;br&gt;正規社員" style="shape=umlActor;verticalLabelPosition=bottom;verticalAlign=top;html=1;" parent="xLGzg63mB8Dj9gTOUTyu-1" vertex="1">
                    <mxGeometry x="-70" y="280" width="30" height="60" as="geometry"/>
                </mxCell>
                <mxCell id="W3s7HI0xKzoNgR-u1J_f-13" value="" style="endArrow=classic;html=1;rounded=0;" parent="xLGzg63mB8Dj9gTOUTyu-1" edge="1">
                    <mxGeometry width="50" height="50" relative="1" as="geometry">
                        <mxPoint x="-30" y="320" as="sourcePoint"/>
                        <mxPoint x="110" y="160" as="targetPoint"/>
                    </mxGeometry>
                </mxCell>
                <mxCell id="W3s7HI0xKzoNgR-u1J_f-15" value="" style="endArrow=classic;html=1;rounded=0;" parent="xLGzg63mB8Dj9gTOUTyu-1" edge="1">
                    <mxGeometry width="50" height="50" relative="1" as="geometry">
                        <mxPoint x="-30" y="320" as="sourcePoint"/>
                        <mxPoint x="110" y="480" as="targetPoint"/>
                    </mxGeometry>
                </mxCell>
                <mxCell id="W3s7HI0xKzoNgR-u1J_f-16" value="" style="endArrow=classic;html=1;rounded=0;" parent="xLGzg63mB8Dj9gTOUTyu-1" edge="1">
                    <mxGeometry width="50" height="50" relative="1" as="geometry">
                        <mxPoint x="-30" y="320" as="sourcePoint"/>
                        <mxPoint x="110" y="320" as="targetPoint"/>
                    </mxGeometry>
                </mxCell>
                <mxCell id="W3s7HI0xKzoNgR-u1J_f-17" value="ベンチマーク情報&lt;br&gt;を選択" style="edgeLabel;html=1;align=center;verticalAlign=middle;resizable=0;points=[];" parent="W3s7HI0xKzoNgR-u1J_f-16" vertex="1" connectable="0">
                    <mxGeometry x="0.3238" y="1" relative="1" as="geometry">
                        <mxPoint x="-13" y="1" as="offset"/>
                    </mxGeometry>
                </mxCell>
                <mxCell id="W3s7HI0xKzoNgR-u1J_f-19" value="" style="endArrow=classic;html=1;rounded=0;startArrow=classic;startFill=1;" parent="xLGzg63mB8Dj9gTOUTyu-1" edge="1">
                    <mxGeometry width="50" height="50" relative="1" as="geometry">
                        <mxPoint x="520" y="160" as="sourcePoint"/>
                        <mxPoint x="710" y="240" as="targetPoint"/>
                    </mxGeometry>
                </mxCell>
                <mxCell id="ZyK_K5tscx5wD3__upGy-6" value="ボトルネック&lt;br&gt;一覧画面" style="shape=umlBoundary;whiteSpace=wrap;html=1;fillColor=#dae8fc;strokeColor=#6c8ebf;" vertex="1" parent="xLGzg63mB8Dj9gTOUTyu-1">
                    <mxGeometry x="120" y="279.87" width="100" height="80" as="geometry"/>
                </mxCell>
                <mxCell id="ZyK_K5tscx5wD3__upGy-7" value="「ボトルネックマスタ」&lt;br&gt;を押下" style="edgeLabel;html=1;align=center;verticalAlign=middle;resizable=0;points=[];" vertex="1" connectable="0" parent="xLGzg63mB8Dj9gTOUTyu-1">
                    <mxGeometry x="47.45224780445278" y="234.1046155985498" as="geometry"/>
                </mxCell>
                <mxCell id="ZyK_K5tscx5wD3__upGy-8" value="ボトルネック情報&lt;br&gt;を入力" style="edgeLabel;html=1;align=center;verticalAlign=middle;resizable=0;points=[];" vertex="1" connectable="0" parent="xLGzg63mB8Dj9gTOUTyu-1">
                    <mxGeometry x="39.49222445580472" y="389.89829818170097" as="geometry"/>
                </mxCell>
            </root>
        </mxGraphModel>
    </diagram>
    <diagram name="*ボトルネックマスタ_編集" id="tjeRAA3svHqC6jtXwj8Z">
        <mxGraphModel dx="1428" dy="459" grid="1" gridSize="10" guides="1" tooltips="1" connect="1" arrows="1" fold="1" page="0" pageScale="1" pageWidth="827" pageHeight="1169" math="0" shadow="0">
            <root>
                <mxCell id="Ggikftgo85Y8MTTUeSxJ-0"/>
                <mxCell id="Ggikftgo85Y8MTTUeSxJ-1" parent="Ggikftgo85Y8MTTUeSxJ-0"/>
                <mxCell id="x7neyK6-fn2vUHiJfY85-0" value="ログイン済&lt;br&gt;ホーム画面" style="shape=umlBoundary;whiteSpace=wrap;html=1;fillColor=#dae8fc;strokeColor=#6c8ebf;" parent="Ggikftgo85Y8MTTUeSxJ-1" vertex="1">
                    <mxGeometry x="120" y="120" width="100" height="80" as="geometry"/>
                </mxCell>
                <mxCell id="x7neyK6-fn2vUHiJfY85-1" value="詳細画面" style="shape=umlBoundary;whiteSpace=wrap;html=1;fillColor=#dae8fc;strokeColor=#6c8ebf;" parent="Ggikftgo85Y8MTTUeSxJ-1" vertex="1">
                    <mxGeometry x="120" y="440" width="100" height="80" as="geometry"/>
                </mxCell>
                <mxCell id="x7neyK6-fn2vUHiJfY85-2" value="ボトルネック&lt;br&gt;モデル" style="ellipse;shape=umlEntity;whiteSpace=wrap;html=1;fillColor=#d5e8d4;strokeColor=#82b366;" parent="Ggikftgo85Y8MTTUeSxJ-1" vertex="1">
                    <mxGeometry x="720" y="200" width="80" height="80" as="geometry"/>
                </mxCell>
                <mxCell id="x7neyK6-fn2vUHiJfY85-3" value="表示する" style="ellipse;shape=umlControl;whiteSpace=wrap;html=1;fillColor=#f8cecc;strokeColor=#b85450;" parent="Ggikftgo85Y8MTTUeSxJ-1" vertex="1">
                    <mxGeometry x="440" y="280" width="70" height="80" as="geometry"/>
                </mxCell>
                <mxCell id="x7neyK6-fn2vUHiJfY85-4" value="" style="endArrow=classic;html=1;rounded=0;" parent="Ggikftgo85Y8MTTUeSxJ-1" edge="1">
                    <mxGeometry width="50" height="50" relative="1" as="geometry">
                        <mxPoint x="240" y="159.17000000000007" as="sourcePoint"/>
                        <mxPoint x="430" y="159.0000000000001" as="targetPoint"/>
                    </mxGeometry>
                </mxCell>
                <mxCell id="x7neyK6-fn2vUHiJfY85-5" value="" style="endArrow=classic;html=1;rounded=0;startArrow=classic;startFill=1;" parent="Ggikftgo85Y8MTTUeSxJ-1" edge="1">
                    <mxGeometry width="50" height="50" relative="1" as="geometry">
                        <mxPoint x="520" y="159.9999999999999" as="sourcePoint"/>
                        <mxPoint x="710.0000000000005" y="239.9999999999999" as="targetPoint"/>
                    </mxGeometry>
                </mxCell>
                <mxCell id="x7neyK6-fn2vUHiJfY85-6" value="" style="endArrow=none;html=1;rounded=0;jumpStyle=none;startArrow=classic;startFill=1;endFill=0;" parent="Ggikftgo85Y8MTTUeSxJ-1" edge="1">
                    <mxGeometry width="50" height="50" relative="1" as="geometry">
                        <mxPoint x="430" y="320" as="sourcePoint"/>
                        <mxPoint x="240" y="320" as="targetPoint"/>
                    </mxGeometry>
                </mxCell>
                <mxCell id="x7neyK6-fn2vUHiJfY85-7" value="" style="endArrow=classic;html=1;rounded=0;" parent="Ggikftgo85Y8MTTUeSxJ-1" edge="1">
                    <mxGeometry width="50" height="50" relative="1" as="geometry">
                        <mxPoint x="430" y="169.9999999999999" as="sourcePoint"/>
                        <mxPoint x="240" y="310" as="targetPoint"/>
                    </mxGeometry>
                </mxCell>
                <mxCell id="x7neyK6-fn2vUHiJfY85-8" value="" style="endArrow=classic;html=1;rounded=0;jumpStyle=none;startArrow=classic;startFill=1;endFill=1;" parent="Ggikftgo85Y8MTTUeSxJ-1" edge="1">
                    <mxGeometry width="50" height="50" relative="1" as="geometry">
                        <mxPoint x="240" y="480" as="sourcePoint"/>
                        <mxPoint x="430" y="330" as="targetPoint"/>
                    </mxGeometry>
                </mxCell>
                <mxCell id="x7neyK6-fn2vUHiJfY85-9" value="ベンチマーク&lt;br&gt;情報一覧画面" style="shape=umlBoundary;whiteSpace=wrap;html=1;fillColor=#dae8fc;strokeColor=#6c8ebf;" parent="Ggikftgo85Y8MTTUeSxJ-1" vertex="1">
                    <mxGeometry x="120" y="280" width="100" height="80" as="geometry"/>
                </mxCell>
                <mxCell id="x7neyK6-fn2vUHiJfY85-10" value="ボトルネック情報&lt;br&gt;を取得する" style="ellipse;shape=umlControl;whiteSpace=wrap;html=1;fillColor=#f8cecc;strokeColor=#b85450;" parent="Ggikftgo85Y8MTTUeSxJ-1" vertex="1">
                    <mxGeometry x="440" y="110" width="80" height="90" as="geometry"/>
                </mxCell>
                <mxCell id="x7neyK6-fn2vUHiJfY85-11" value="編集画面" style="shape=umlBoundary;whiteSpace=wrap;html=1;fillColor=#dae8fc;strokeColor=#6c8ebf;" parent="Ggikftgo85Y8MTTUeSxJ-1" vertex="1">
                    <mxGeometry x="120" y="600" width="100" height="80" as="geometry"/>
                </mxCell>
                <mxCell id="x7neyK6-fn2vUHiJfY85-12" value="" style="endArrow=none;html=1;rounded=0;jumpStyle=none;startArrow=classic;startFill=1;endFill=0;" parent="Ggikftgo85Y8MTTUeSxJ-1" edge="1">
                    <mxGeometry width="50" height="50" relative="1" as="geometry">
                        <mxPoint x="240" y="630" as="sourcePoint"/>
                        <mxPoint x="430" y="340" as="targetPoint"/>
                    </mxGeometry>
                </mxCell>
                <mxCell id="x7neyK6-fn2vUHiJfY85-13" value="" style="endArrow=classic;html=1;rounded=0;" parent="Ggikftgo85Y8MTTUeSxJ-1" edge="1">
                    <mxGeometry width="50" height="50" relative="1" as="geometry">
                        <mxPoint x="-30" y="320" as="sourcePoint"/>
                        <mxPoint x="110" y="640" as="targetPoint"/>
                    </mxGeometry>
                </mxCell>
                <mxCell id="x7neyK6-fn2vUHiJfY85-15" value="入力データを検証する" style="ellipse;shape=umlControl;whiteSpace=wrap;html=1;fillColor=#f8cecc;strokeColor=#b85450;" parent="Ggikftgo85Y8MTTUeSxJ-1" vertex="1">
                    <mxGeometry x="440" y="600" width="70" height="80" as="geometry"/>
                </mxCell>
                <mxCell id="x7neyK6-fn2vUHiJfY85-16" value="更新する" style="ellipse;shape=umlControl;whiteSpace=wrap;html=1;fillColor=#f8cecc;strokeColor=#b85450;" parent="Ggikftgo85Y8MTTUeSxJ-1" vertex="1">
                    <mxGeometry x="440" y="440" width="70" height="80" as="geometry"/>
                </mxCell>
                <mxCell id="x7neyK6-fn2vUHiJfY85-17" value="" style="endArrow=classic;html=1;rounded=0;jumpStyle=none;startArrow=classic;startFill=1;endFill=1;" parent="Ggikftgo85Y8MTTUeSxJ-1" edge="1">
                    <mxGeometry width="50" height="50" relative="1" as="geometry">
                        <mxPoint x="240" y="640" as="sourcePoint"/>
                        <mxPoint x="430" y="640" as="targetPoint"/>
                    </mxGeometry>
                </mxCell>
                <mxCell id="x7neyK6-fn2vUHiJfY85-18" value="" style="endArrow=none;html=1;rounded=0;jumpStyle=none;startArrow=classic;startFill=1;endFill=0;" parent="Ggikftgo85Y8MTTUeSxJ-1" edge="1">
                    <mxGeometry width="50" height="50" relative="1" as="geometry">
                        <mxPoint x="475" y="530" as="sourcePoint"/>
                        <mxPoint x="475" y="590" as="targetPoint"/>
                    </mxGeometry>
                </mxCell>
                <mxCell id="x7neyK6-fn2vUHiJfY85-19" value="" style="endArrow=classic;html=1;rounded=0;jumpStyle=none;startArrow=classic;startFill=1;endFill=1;" parent="Ggikftgo85Y8MTTUeSxJ-1" edge="1">
                    <mxGeometry width="50" height="50" relative="1" as="geometry">
                        <mxPoint x="710" y="250" as="sourcePoint"/>
                        <mxPoint x="520" y="480" as="targetPoint"/>
                    </mxGeometry>
                </mxCell>
                <mxCell id="x7neyK6-fn2vUHiJfY85-20" value="ボトルネック情報&lt;br&gt;を更新" style="edgeLabel;html=1;align=center;verticalAlign=middle;resizable=0;points=[];" parent="x7neyK6-fn2vUHiJfY85-19" vertex="1" connectable="0">
                    <mxGeometry x="-0.2157" y="4" relative="1" as="geometry">
                        <mxPoint x="-1" as="offset"/>
                    </mxGeometry>
                </mxCell>
                <mxCell id="x7neyK6-fn2vUHiJfY85-21" value="" style="endArrow=classic;html=1;rounded=0;jumpStyle=arc;" parent="Ggikftgo85Y8MTTUeSxJ-1" edge="1">
                    <mxGeometry width="50" height="50" relative="1" as="geometry">
                        <mxPoint x="430" y="180" as="sourcePoint"/>
                        <mxPoint x="240" y="470" as="targetPoint"/>
                    </mxGeometry>
                </mxCell>
                <mxCell id="x7neyK6-fn2vUHiJfY85-22" value="ボトルネックマスタ_編集" style="rounded=0;whiteSpace=wrap;html=1;fillColor=#ffe6cc;strokeColor=#d79b00;fontStyle=1;fontSize=18;" parent="Ggikftgo85Y8MTTUeSxJ-1" vertex="1">
                    <mxGeometry x="-160" y="60" width="250" height="60" as="geometry"/>
                </mxCell>
                <mxCell id="x7neyK6-fn2vUHiJfY85-23" value="管理者&lt;br&gt;正規社員" style="shape=umlActor;verticalLabelPosition=bottom;verticalAlign=top;html=1;" parent="Ggikftgo85Y8MTTUeSxJ-1" vertex="1">
                    <mxGeometry x="-70" y="280" width="30" height="60" as="geometry"/>
                </mxCell>
                <mxCell id="x7neyK6-fn2vUHiJfY85-24" value="" style="endArrow=classic;html=1;rounded=0;" parent="Ggikftgo85Y8MTTUeSxJ-1" edge="1">
                    <mxGeometry width="50" height="50" relative="1" as="geometry">
                        <mxPoint x="-30" y="320" as="sourcePoint"/>
                        <mxPoint x="110" y="160" as="targetPoint"/>
                    </mxGeometry>
                </mxCell>
                <mxCell id="x7neyK6-fn2vUHiJfY85-26" value="" style="endArrow=classic;html=1;rounded=0;" parent="Ggikftgo85Y8MTTUeSxJ-1" edge="1">
                    <mxGeometry width="50" height="50" relative="1" as="geometry">
                        <mxPoint x="-30" y="320" as="sourcePoint"/>
                        <mxPoint x="110" y="480" as="targetPoint"/>
                    </mxGeometry>
                </mxCell>
                <mxCell id="x7neyK6-fn2vUHiJfY85-27" value="「編集」を押下" style="edgeLabel;html=1;align=center;verticalAlign=middle;resizable=0;points=[];" parent="x7neyK6-fn2vUHiJfY85-26" vertex="1" connectable="0">
                    <mxGeometry x="0.1529" y="1" relative="1" as="geometry">
                        <mxPoint x="1" as="offset"/>
                    </mxGeometry>
                </mxCell>
                <mxCell id="x7neyK6-fn2vUHiJfY85-28" value="" style="endArrow=classic;html=1;rounded=0;" parent="Ggikftgo85Y8MTTUeSxJ-1" edge="1">
                    <mxGeometry width="50" height="50" relative="1" as="geometry">
                        <mxPoint x="-30" y="320" as="sourcePoint"/>
                        <mxPoint x="110" y="320" as="targetPoint"/>
                    </mxGeometry>
                </mxCell>
                <mxCell id="x7neyK6-fn2vUHiJfY85-29" value="ボトルネック情報&lt;br&gt;を選択" style="edgeLabel;html=1;align=center;verticalAlign=middle;resizable=0;points=[];" parent="x7neyK6-fn2vUHiJfY85-28" vertex="1" connectable="0">
                    <mxGeometry x="0.5476" y="-1" relative="1" as="geometry">
                        <mxPoint x="-38" y="-1" as="offset"/>
                    </mxGeometry>
                </mxCell>
                <mxCell id="x7neyK6-fn2vUHiJfY85-30" value="" style="curved=1;endArrow=classic;html=1;rounded=0;" parent="Ggikftgo85Y8MTTUeSxJ-1" edge="1">
                    <mxGeometry width="50" height="50" relative="1" as="geometry">
                        <mxPoint x="520" y="460" as="sourcePoint"/>
                        <mxPoint x="520" y="170" as="targetPoint"/>
                        <Array as="points">
                            <mxPoint x="600" y="250"/>
                        </Array>
                    </mxGeometry>
                </mxCell>
                <mxCell id="x7neyK6-fn2vUHiJfY85-32" value="" style="endArrow=classic;html=1;rounded=0;startArrow=classic;startFill=1;" parent="Ggikftgo85Y8MTTUeSxJ-1" edge="1">
                    <mxGeometry width="50" height="50" relative="1" as="geometry">
                        <mxPoint x="520" y="160" as="sourcePoint"/>
                        <mxPoint x="710" y="240" as="targetPoint"/>
                    </mxGeometry>
                </mxCell>
                <mxCell id="KnLcznkfzEurvnosmP6W-3" value="ボトルネック&lt;br&gt;一覧画面" style="shape=umlBoundary;whiteSpace=wrap;html=1;fillColor=#dae8fc;strokeColor=#6c8ebf;" vertex="1" parent="Ggikftgo85Y8MTTUeSxJ-1">
                    <mxGeometry x="120" y="279.87" width="100" height="80" as="geometry"/>
                </mxCell>
                <mxCell id="KnLcznkfzEurvnosmP6W-4" value="「ボトルネックマスタ」&lt;br&gt;を押下" style="edgeLabel;html=1;align=center;verticalAlign=middle;resizable=0;points=[];" vertex="1" connectable="0" parent="Ggikftgo85Y8MTTUeSxJ-1">
                    <mxGeometry x="47.45224780445278" y="234.1046155985498" as="geometry"/>
                </mxCell>
                <mxCell id="KnLcznkfzEurvnosmP6W-5" value="ボトルネック情報&lt;br&gt;を入力" style="edgeLabel;html=1;align=center;verticalAlign=middle;resizable=0;points=[];" vertex="1" connectable="0" parent="Ggikftgo85Y8MTTUeSxJ-1">
                    <mxGeometry x="39.49222445580472" y="389.89829818170097" as="geometry">
                        <mxPoint x="20" y="131" as="offset"/>
                    </mxGeometry>
                </mxCell>
            </root>
        </mxGraphModel>
    </diagram>
    <diagram name="*ボトルネックマスタ_削除" id="8xSgPIeDdL2duc1b9KSj">
        <mxGraphModel dx="1428" dy="459" grid="1" gridSize="10" guides="1" tooltips="1" connect="1" arrows="1" fold="1" page="0" pageScale="1" pageWidth="827" pageHeight="1169" math="0" shadow="0">
            <root>
                <mxCell id="2YAb4AV9WROivaMRSA2u-0"/>
                <mxCell id="2YAb4AV9WROivaMRSA2u-1" parent="2YAb4AV9WROivaMRSA2u-0"/>
                <mxCell id="OePwCM_2csQdwaXa9fcp-0" value="ログイン済&lt;br&gt;ホーム画面" style="shape=umlBoundary;whiteSpace=wrap;html=1;fillColor=#dae8fc;strokeColor=#6c8ebf;" parent="2YAb4AV9WROivaMRSA2u-1" vertex="1">
                    <mxGeometry x="120" y="120" width="100" height="80" as="geometry"/>
                </mxCell>
                <mxCell id="OePwCM_2csQdwaXa9fcp-1" value="詳細画面" style="shape=umlBoundary;whiteSpace=wrap;html=1;fillColor=#dae8fc;strokeColor=#6c8ebf;" parent="2YAb4AV9WROivaMRSA2u-1" vertex="1">
                    <mxGeometry x="120" y="440" width="100" height="80" as="geometry"/>
                </mxCell>
                <mxCell id="OePwCM_2csQdwaXa9fcp-2" value="ボトルネック&lt;br&gt;モデル" style="ellipse;shape=umlEntity;whiteSpace=wrap;html=1;fillColor=#d5e8d4;strokeColor=#82b366;" parent="2YAb4AV9WROivaMRSA2u-1" vertex="1">
                    <mxGeometry x="720" y="200" width="80" height="80" as="geometry"/>
                </mxCell>
                <mxCell id="OePwCM_2csQdwaXa9fcp-3" value="表示する" style="ellipse;shape=umlControl;whiteSpace=wrap;html=1;fillColor=#f8cecc;strokeColor=#b85450;" parent="2YAb4AV9WROivaMRSA2u-1" vertex="1">
                    <mxGeometry x="440" y="280" width="70" height="80" as="geometry"/>
                </mxCell>
                <mxCell id="OePwCM_2csQdwaXa9fcp-4" value="" style="endArrow=classic;html=1;rounded=0;" parent="2YAb4AV9WROivaMRSA2u-1" edge="1">
                    <mxGeometry width="50" height="50" relative="1" as="geometry">
                        <mxPoint x="240" y="159.17000000000007" as="sourcePoint"/>
                        <mxPoint x="430" y="159" as="targetPoint"/>
                    </mxGeometry>
                </mxCell>
                <mxCell id="OePwCM_2csQdwaXa9fcp-5" value="" style="endArrow=classic;html=1;rounded=0;startArrow=classic;startFill=1;" parent="2YAb4AV9WROivaMRSA2u-1" edge="1">
                    <mxGeometry width="50" height="50" relative="1" as="geometry">
                        <mxPoint x="520" y="160" as="sourcePoint"/>
                        <mxPoint x="710" y="250" as="targetPoint"/>
                    </mxGeometry>
                </mxCell>
                <mxCell id="OePwCM_2csQdwaXa9fcp-6" value="" style="endArrow=none;html=1;rounded=0;jumpStyle=none;startArrow=classic;startFill=1;endFill=0;" parent="2YAb4AV9WROivaMRSA2u-1" edge="1">
                    <mxGeometry width="50" height="50" relative="1" as="geometry">
                        <mxPoint x="430" y="320" as="sourcePoint"/>
                        <mxPoint x="240" y="320" as="targetPoint"/>
                    </mxGeometry>
                </mxCell>
                <mxCell id="OePwCM_2csQdwaXa9fcp-7" value="" style="endArrow=classic;html=1;rounded=0;" parent="2YAb4AV9WROivaMRSA2u-1" edge="1">
                    <mxGeometry width="50" height="50" relative="1" as="geometry">
                        <mxPoint x="430" y="170" as="sourcePoint"/>
                        <mxPoint x="240" y="310" as="targetPoint"/>
                    </mxGeometry>
                </mxCell>
                <mxCell id="OePwCM_2csQdwaXa9fcp-8" value="" style="endArrow=none;html=1;rounded=0;jumpStyle=none;startArrow=classic;startFill=1;endFill=0;" parent="2YAb4AV9WROivaMRSA2u-1" edge="1">
                    <mxGeometry width="50" height="50" relative="1" as="geometry">
                        <mxPoint x="240" y="470" as="sourcePoint"/>
                        <mxPoint x="430" y="330" as="targetPoint"/>
                    </mxGeometry>
                </mxCell>
                <mxCell id="OePwCM_2csQdwaXa9fcp-9" value="ベンチマーク&lt;br&gt;情報一覧画面" style="shape=umlBoundary;whiteSpace=wrap;html=1;fillColor=#dae8fc;strokeColor=#6c8ebf;" parent="2YAb4AV9WROivaMRSA2u-1" vertex="1">
                    <mxGeometry x="120" y="280" width="100" height="80" as="geometry"/>
                </mxCell>
                <mxCell id="OePwCM_2csQdwaXa9fcp-10" value="ボトルネック&lt;br&gt;マスタ情報&lt;br&gt;を取得する" style="ellipse;shape=umlControl;whiteSpace=wrap;html=1;fillColor=#f8cecc;strokeColor=#b85450;" parent="2YAb4AV9WROivaMRSA2u-1" vertex="1">
                    <mxGeometry x="440" y="110" width="80" height="90" as="geometry"/>
                </mxCell>
                <mxCell id="OePwCM_2csQdwaXa9fcp-11" value="削除する" style="ellipse;shape=umlControl;whiteSpace=wrap;html=1;fillColor=#f8cecc;strokeColor=#b85450;" parent="2YAb4AV9WROivaMRSA2u-1" vertex="1">
                    <mxGeometry x="445" y="440" width="70" height="80" as="geometry"/>
                </mxCell>
                <mxCell id="OePwCM_2csQdwaXa9fcp-12" value="" style="endArrow=none;html=1;rounded=0;jumpStyle=none;startArrow=classic;startFill=1;endFill=0;" parent="2YAb4AV9WROivaMRSA2u-1" edge="1">
                    <mxGeometry width="50" height="50" relative="1" as="geometry">
                        <mxPoint x="430" y="480" as="sourcePoint"/>
                        <mxPoint x="240" y="480" as="targetPoint"/>
                    </mxGeometry>
                </mxCell>
                <mxCell id="OePwCM_2csQdwaXa9fcp-13" value="" style="endArrow=classic;html=1;rounded=0;jumpStyle=none;startArrow=classic;startFill=1;endFill=1;" parent="2YAb4AV9WROivaMRSA2u-1" edge="1">
                    <mxGeometry width="50" height="50" relative="1" as="geometry">
                        <mxPoint x="720" y="270" as="sourcePoint"/>
                        <mxPoint x="530" y="480" as="targetPoint"/>
                    </mxGeometry>
                </mxCell>
                <mxCell id="OePwCM_2csQdwaXa9fcp-14" value="ボトルネック情報&lt;br&gt;を削除" style="edgeLabel;html=1;align=center;verticalAlign=middle;resizable=0;points=[];" parent="OePwCM_2csQdwaXa9fcp-13" vertex="1" connectable="0">
                    <mxGeometry x="0.1143" y="2" relative="1" as="geometry">
                        <mxPoint x="75" y="-48" as="offset"/>
                    </mxGeometry>
                </mxCell>
                <mxCell id="OePwCM_2csQdwaXa9fcp-15" value="ボトルネックマスタ_削除" style="rounded=0;whiteSpace=wrap;html=1;fillColor=#ffe6cc;strokeColor=#d79b00;fontStyle=1;fontSize=18;" parent="2YAb4AV9WROivaMRSA2u-1" vertex="1">
                    <mxGeometry x="-160" y="70" width="250" height="60" as="geometry"/>
                </mxCell>
                <mxCell id="OePwCM_2csQdwaXa9fcp-16" value="管理者&lt;br&gt;正規社員" style="shape=umlActor;verticalLabelPosition=bottom;verticalAlign=top;html=1;" parent="2YAb4AV9WROivaMRSA2u-1" vertex="1">
                    <mxGeometry x="-70" y="280" width="30" height="60" as="geometry"/>
                </mxCell>
                <mxCell id="OePwCM_2csQdwaXa9fcp-17" value="" style="endArrow=classic;html=1;rounded=0;" parent="2YAb4AV9WROivaMRSA2u-1" edge="1">
                    <mxGeometry width="50" height="50" relative="1" as="geometry">
                        <mxPoint x="-30.000000000000227" y="320" as="sourcePoint"/>
                        <mxPoint x="110" y="159.9999999999999" as="targetPoint"/>
                    </mxGeometry>
                </mxCell>
                <mxCell id="OePwCM_2csQdwaXa9fcp-18" value="「ボトルネック情報」&lt;br&gt;を押下" style="edgeLabel;html=1;align=center;verticalAlign=middle;resizable=0;points=[];" parent="OePwCM_2csQdwaXa9fcp-17" vertex="1" connectable="0">
                    <mxGeometry x="0.2118" y="-2" relative="1" as="geometry">
                        <mxPoint x="-9" y="10" as="offset"/>
                    </mxGeometry>
                </mxCell>
                <mxCell id="OePwCM_2csQdwaXa9fcp-19" value="" style="endArrow=classic;html=1;rounded=0;" parent="2YAb4AV9WROivaMRSA2u-1" edge="1">
                    <mxGeometry width="50" height="50" relative="1" as="geometry">
                        <mxPoint x="-30.000000000000227" y="320" as="sourcePoint"/>
                        <mxPoint x="110" y="480" as="targetPoint"/>
                    </mxGeometry>
                </mxCell>
                <mxCell id="OePwCM_2csQdwaXa9fcp-20" value="「削除」を押下" style="edgeLabel;html=1;align=center;verticalAlign=middle;resizable=0;points=[];" parent="OePwCM_2csQdwaXa9fcp-19" vertex="1" connectable="0">
                    <mxGeometry x="0.1529" y="1" relative="1" as="geometry">
                        <mxPoint x="1" as="offset"/>
                    </mxGeometry>
                </mxCell>
                <mxCell id="OePwCM_2csQdwaXa9fcp-21" value="" style="endArrow=classic;html=1;rounded=0;" parent="2YAb4AV9WROivaMRSA2u-1" edge="1">
                    <mxGeometry width="50" height="50" relative="1" as="geometry">
                        <mxPoint x="-30.000000000000227" y="320" as="sourcePoint"/>
                        <mxPoint x="110" y="320" as="targetPoint"/>
                    </mxGeometry>
                </mxCell>
                <mxCell id="OePwCM_2csQdwaXa9fcp-22" value="ボトルネック情報&lt;br&gt;を選択" style="edgeLabel;html=1;align=center;verticalAlign=middle;resizable=0;points=[];" parent="OePwCM_2csQdwaXa9fcp-21" vertex="1" connectable="0">
                    <mxGeometry x="0.5476" y="-1" relative="1" as="geometry">
                        <mxPoint x="-38" y="-1" as="offset"/>
                    </mxGeometry>
                </mxCell>
                <mxCell id="OePwCM_2csQdwaXa9fcp-23" value="" style="curved=1;endArrow=classic;html=1;rounded=0;" parent="2YAb4AV9WROivaMRSA2u-1" edge="1">
                    <mxGeometry width="50" height="50" relative="1" as="geometry">
                        <mxPoint x="520" y="460" as="sourcePoint"/>
                        <mxPoint x="520" y="169.9999999999999" as="targetPoint"/>
                        <Array as="points">
                            <mxPoint x="600" y="250"/>
                        </Array>
                    </mxGeometry>
                </mxCell>
            </root>
        </mxGraphModel>
    </diagram>
</mxfile>